<svg width="62" height="62" viewBox="0 0 62 62" fill="none" xmlns="http://www.w3.org/2000/svg">
<circle cx="31.0002" cy="31" r="30" stroke="white" stroke-opacity="0.2"/>
<path d="M38.9299 27.9214C38.956 28.0256 38.969 28.1948 38.969 28.4292C38.969 30.3042 38.5133 32.1141 37.6018 33.8589C36.6643 35.7078 35.3492 37.1792 33.6565 38.2729C31.8075 39.4969 29.6851 40.1089 27.2893 40.1089C24.9976 40.1089 22.9013 39.4969 21.0002 38.2729C21.2867 38.299 21.6122 38.312 21.9768 38.312C23.8778 38.312 25.5836 37.7261 27.094 36.5542C26.1825 36.5542 25.3752 36.2938 24.6721 35.7729C23.995 35.2261 23.5263 34.549 23.2659 33.7417C23.5263 33.7677 23.7737 33.7808 24.0081 33.7808C24.3726 33.7808 24.7372 33.7417 25.1018 33.6636C24.1643 33.4552 23.3831 32.9735 22.7581 32.2183C22.1331 31.4631 21.8206 30.6037 21.8206 29.6401V29.562C22.3935 29.9006 23.0055 30.0828 23.6565 30.1089C23.1096 29.7183 22.6669 29.2235 22.3284 28.6245C21.9898 28.0256 21.8206 27.3745 21.8206 26.6714C21.8206 25.9422 22.0159 25.2521 22.4065 24.6011C23.4221 25.8771 24.6591 26.8927 26.1174 27.6479C27.6018 28.4032 29.1773 28.8198 30.844 28.8979C30.7919 28.5854 30.7659 28.2729 30.7659 27.9604C30.7659 27.2313 30.9482 26.5542 31.3127 25.9292C31.6773 25.2782 32.1721 24.7703 32.7971 24.4058C33.4221 24.0412 34.0992 23.8589 34.8284 23.8589C35.4273 23.8589 35.9742 23.9761 36.469 24.2104C36.9898 24.4448 37.4456 24.7573 37.8362 25.1479C38.7737 24.9657 39.6461 24.6401 40.4534 24.1714C40.1409 25.1349 39.5419 25.8901 38.6565 26.437C39.4377 26.3328 40.219 26.1115 41.0002 25.7729C40.4273 26.6063 39.7372 27.3224 38.9299 27.9214Z" fill="white"/>
</svg>
