<svg width="62" height="62" viewBox="0 0 62 62" fill="none" xmlns="http://www.w3.org/2000/svg">
<circle cx="31.0002" cy="31" r="30" stroke="white" stroke-opacity="0.2"/>
<path d="M31.0002 27.4917C30.193 27.4917 29.4377 27.7 28.7346 28.1167C28.0575 28.5073 27.5107 29.0542 27.094 29.7573C26.7034 30.4344 26.5081 31.1766 26.5081 31.9839C26.5081 32.7912 26.7034 33.5464 27.094 34.2495C27.5107 34.9266 28.0575 35.4735 28.7346 35.8901C29.4377 36.2808 30.193 36.4761 31.0002 36.4761C31.8075 36.4761 32.5497 36.2808 33.2268 35.8901C33.9299 35.4735 34.4768 34.9266 34.8674 34.2495C35.2841 33.5464 35.4924 32.7912 35.4924 31.9839C35.4924 31.1766 35.2841 30.4344 34.8674 29.7573C34.4768 29.0542 33.9299 28.5073 33.2268 28.1167C32.5497 27.7 31.8075 27.4917 31.0002 27.4917ZM31.0002 34.9136C30.193 34.9136 29.5028 34.6271 28.9299 34.0542C28.357 33.4813 28.0706 32.7912 28.0706 31.9839C28.0706 31.1766 28.357 30.4865 28.9299 29.9136C29.5028 29.3407 30.193 29.0542 31.0002 29.0542C31.8075 29.0542 32.4976 29.3407 33.0706 29.9136C33.6435 30.4865 33.9299 31.1766 33.9299 31.9839C33.9299 32.7912 33.6435 33.4813 33.0706 34.0542C32.4976 34.6271 31.8075 34.9136 31.0002 34.9136ZM36.7424 27.2964C36.7164 27.5828 36.5992 27.8302 36.3909 28.0386C36.2086 28.2469 35.9742 28.3511 35.6877 28.3511C35.4013 28.3511 35.1539 28.2469 34.9456 28.0386C34.7372 27.8302 34.6331 27.5828 34.6331 27.2964C34.6331 27.0099 34.7372 26.7625 34.9456 26.5542C35.1539 26.3459 35.4013 26.2417 35.6877 26.2417C35.9742 26.2417 36.2216 26.3459 36.4299 26.5542C36.6383 26.7625 36.7424 27.0099 36.7424 27.2964ZM39.7112 28.3511C39.6591 27.5959 39.5419 26.9448 39.3596 26.3979C39.1252 25.7469 38.7607 25.187 38.2659 24.7183C37.7971 24.2235 37.2372 23.8589 36.5862 23.6245C36.0393 23.4422 35.3883 23.3381 34.6331 23.312C33.9039 23.2599 32.693 23.2339 31.0002 23.2339C29.3075 23.2339 28.0836 23.2599 27.3284 23.312C26.5992 23.3381 25.9612 23.4422 25.4143 23.6245C24.7633 23.8589 24.1903 24.2235 23.6956 24.7183C23.2268 25.187 22.8752 25.7469 22.6409 26.3979C22.4586 26.9448 22.3414 27.5959 22.2893 28.3511C22.2633 29.0802 22.2502 30.2912 22.2502 31.9839C22.2502 33.6766 22.2633 34.9006 22.2893 35.6558C22.3414 36.3849 22.4586 37.0229 22.6409 37.5698C22.8752 38.2209 23.2268 38.7938 23.6956 39.2886C24.1903 39.7573 24.7633 40.0959 25.4143 40.3042C25.9612 40.5125 26.5992 40.6297 27.3284 40.6558C28.0836 40.7078 29.3075 40.7339 31.0002 40.7339C32.693 40.7339 33.9039 40.7078 34.6331 40.6558C35.3883 40.6297 36.0393 40.5256 36.5862 40.3433C37.2372 40.1089 37.7971 39.7573 38.2659 39.2886C38.7607 38.7938 39.1252 38.2209 39.3596 37.5698C39.5419 37.0229 39.6461 36.3849 39.6721 35.6558C39.7242 34.9006 39.7502 33.6766 39.7502 31.9839C39.7502 30.2912 39.7372 29.0802 39.7112 28.3511ZM37.8362 37.1401C37.5237 37.9214 36.9638 38.4813 36.1565 38.8198C35.7398 38.9761 35.0367 39.0802 34.0471 39.1323C33.5002 39.1584 32.693 39.1714 31.6252 39.1714H30.3752C29.3336 39.1714 28.5263 39.1584 27.9534 39.1323C26.9898 39.0802 26.2867 38.9761 25.844 38.8198C25.0627 38.5073 24.5028 37.9474 24.1643 37.1401C24.0081 36.6974 23.9039 35.9943 23.8518 35.0308C23.8258 34.4578 23.8127 33.6506 23.8127 32.6089V31.3589C23.8127 30.3172 23.8258 29.5099 23.8518 28.937C23.9039 27.9474 24.0081 27.2443 24.1643 26.8276C24.4768 26.0203 25.0367 25.4604 25.844 25.1479C26.2867 24.9917 26.9898 24.8875 27.9534 24.8354C28.5263 24.8094 29.3336 24.7964 30.3752 24.7964H31.6252C32.6669 24.7964 33.4742 24.8094 34.0471 24.8354C35.0367 24.8875 35.7398 24.9917 36.1565 25.1479C36.9638 25.4604 37.5237 26.0203 37.8362 26.8276C37.9924 27.2443 38.0966 27.9474 38.1487 28.937C38.1747 29.4839 38.1877 30.2912 38.1877 31.3589V32.6089C38.1877 33.6506 38.1747 34.4578 38.1487 35.0308C38.0966 35.9943 37.9924 36.6974 37.8362 37.1401Z" fill="white"/>
</svg>
